# xmcd CD database file
#
# Track frame offsets:
#	150
#	31725
#	62290
#	102025
#	130327
#	161242
#	193107
#	222892
#
# Disc length: 3250 seconds
#
# Revision: 0
# Processed by: cddbd v1.5.2PL0 Copyright (c) Steve Scherf et al.
# Submitted via: CDex 1.51
#
DISCID=670cb008
DTITLE=Jonathan Kreisberg - The South Of Everywhere
DYEAR=2007
DGENRE=Jazz
TTITLE0=The South Of Everywhere
TTITLE1=Strange Resolution
TTITLE2=Kiitos
TTITLE3=Stella By Starlight
TTITLE4=Funeral For The Ants
TTITLE5=Elena
TTITLE6=Altered Ego
TTITLE7=The Best Thing For You
EXTD=YEAR: 2007
EXTT0=
EXTT1=
EXTT2=
EXTT3=
EXTT4=
EXTT5=
EXTT6=
EXTT7=
PLAYORDER=
